<?xml version="1.0" encoding="UTF-8"?>
<svg id="Layer_2" data-name="Layer 2" xmlns="http://www.w3.org/2000/svg" viewBox="0 0 378.35 239.79">
  <defs>
    <style>
      .cls-1 {
        stroke-width: 0px;
      }
    </style>
  </defs>
  <g id="Line">
    <path class="cls-1" d="m331.33,79.41c-3.34-27.37-26.79-48.45-54.51-48.45-6.55,0-12.95,1.16-19.08,3.45C243.61,12.81,220.13,0,194.35,0c-30.73,0-58.34,18.68-69.97,46.9-7.12-3.69-14.93-5.62-22.83-5.62-22.47,0-42.33,15.34-48.15,36.81-16.05,2.46-30.74,11.16-40.62,24.14C2.31,115.98-1.93,133.07.82,150.38c4.74,30.02,32.22,52.67,63.91,52.67h54.42c2.46,3.7,5.28,7.2,8.36,10.52.09.12.13.26.23.37.1.11.24.16.35.25.81.85,1.55,1.75,2.39,2.57,11.34,10.95,25.32,18.23,40.44,21.32.03,0,.04.03.07.04.11.03.21.03.32.06.28.06.56.1.84.16,1.05.23,2.11.47,3.08.58,1.03.15,2.13.21,3.18.33.6.07,1.2.14,1.81.19.93.09,1.82.23,2.77.29,1.46.08,2.94.08,4.41.08s2.95,0,4.44-.08c.95-.05,1.85-.2,2.78-.29.59-.05,1.17-.12,1.75-.18,1.06-.12,2.17-.18,3.21-.34.22-.03.4-.15.61-.22,16.54-2.59,31.89-10.1,44.16-21.94.85-.83,1.6-1.72,2.4-2.58.11-.09.24-.13.34-.24.1-.11.14-.25.23-.37,3.11-3.36,5.95-6.89,8.43-10.64.19.03.37.11.57.11h57.6c31.06,0,57.66-21.24,63.26-50.51,6.33-33.27-13.71-64.87-45.85-73.13ZM58.44,160.64c-5.85,0-10.6-4.76-10.6-10.6s4.76-10.6,10.6-10.6,10.6,4.76,10.6,10.6-4.76,10.6-10.6,10.6Zm147.14-75.2c1.52.38,3.04.75,4.53,1.23.99.32,1.95.71,2.93,1.07,1.41.52,2.83,1.03,4.21,1.63.98.43,1.92.92,2.87,1.39,1.33.65,2.66,1.3,3.94,2.03.95.53,1.86,1.13,2.78,1.71,1.24.77,2.47,1.55,3.66,2.39.91.65,1.79,1.34,2.67,2.03,1.13.88,2.25,1.77,3.33,2.72.87.77,1.72,1.57,2.56,2.38.6.58,1.19,1.19,1.77,1.79-2.94,3-6.16,5.66-9.52,8.1-8-12.53-19.41-22.86-33.24-29.59.16-.09.32-.17.46-.28,1.4.21,2.8.38,4.18.67.96.2,1.9.49,2.86.74Zm56.44,68.13h-17.97c-.63-11.86-3.84-23.24-9.18-33.47,3.79-2.69,7.31-5.77,10.62-9.1,9.86,12.12,15.63,26.96,16.53,42.57Zm-17.85,53.02c-3.43-2.96-7.02-5.69-10.81-8.06,6.51-11.38,10.29-24.34,10.75-37.89h17.97c-.61,17.04-6.84,33.05-17.91,45.95Zm-71.14,24.73c-14.05-2.73-27.05-9.45-37.56-19.57,3.1-2.66,6.34-5.11,9.77-7.25,7.88,11.38,18.63,20.76,31.51,26.98-.17.09-.34.19-.49.31-1.07-.16-2.16-.26-3.23-.47h0Zm-37.33-127.24c.88-.85,1.76-1.69,2.68-2.49,1.04-.91,2.11-1.76,3.2-2.61.92-.72,1.84-1.45,2.8-2.12,1.15-.81,2.34-1.56,3.54-2.31.96-.6,1.91-1.22,2.89-1.77,1.26-.71,2.55-1.34,3.84-1.97.99-.48,1.96-.99,2.96-1.43,1.36-.59,2.75-1.09,4.14-1.61.99-.37,1.97-.77,2.98-1.09,1.47-.47,2.98-.84,4.48-1.22.97-.25,1.92-.54,2.9-.75,1.38-.29,2.78-.46,4.17-.67.14.11.3.19.46.28-13.83,6.74-25.24,17.07-33.23,29.59-3.36-2.44-6.58-5.1-9.52-8.1.56-.58,1.13-1.16,1.71-1.72Zm57.31,122.03c-1.24.57-2.55,1-3.82,1.5v-35.09c12.03.26,23.69,3.15,34.22,8.48-7.57,10.73-17.94,19.52-30.4,25.11Zm-3.82-40.66v-24.82h47.86c-.45,12.3-3.9,24.06-9.82,34.39-11.68-6.03-24.65-9.3-38.05-9.57Zm0-31.89v-18.35c14.09-.31,27.76-4.22,39.73-11.26,4.65,9.08,7.46,19.13,8.07,29.61h-47.81Zm0-25.41v-39.97c1.28.5,2.59.93,3.84,1.5,13.56,6.12,24.69,16.01,32.38,28.08-10.92,6.44-23.36,10.08-36.22,10.39Zm-7.36-38.48c.09-.04.2-.07.29-.11v38.42c-11.6-.83-22.77-4.36-32.69-10.21,7.69-12.07,18.82-21.96,32.4-28.09Zm.29,45.36v18.54h-44.27c.61-10.47,3.43-20.52,8.08-29.61,10.97,6.45,23.36,10.23,36.2,11.07Zm0,25.6v24.98c-12.14.74-23.86,3.91-34.51,9.41-5.91-10.33-9.36-22.09-9.82-34.39h44.33Zm0,32.05v33.54c-.11-.05-.22-.08-.32-.13-12.44-5.58-22.8-14.36-30.37-25.09,9.5-4.8,19.92-7.61,30.69-8.32Zm16.46,39.1c-.15-.12-.32-.21-.5-.31,12.88-6.23,23.63-15.61,31.51-26.98,3.43,2.13,6.67,4.59,9.77,7.25-11.31,10.89-25.51,17.76-40.78,20.04Zm-69.23-120.79c3.31,3.33,6.83,6.41,10.62,9.1-5.35,10.23-8.55,21.61-9.19,33.47h-15.8c-.85,0-1.6.34-2.21.84.74-15.91,6.53-31.06,16.57-43.41Zm-14.36,49.64h15.74c.46,13.56,4.24,26.52,10.75,37.89-3.79,2.37-7.38,5.1-10.81,8.06-11.27-13.13-17.53-29.47-17.95-46.84.62.53,1.4.88,2.27.88Zm204.95,0c-5.85,0-10.6-4.76-10.6-10.6s4.76-10.6,10.6-10.6,10.6,4.76,10.6,10.6-4.76,10.6-10.6,10.6Zm50.31-9.43c-4.37,22.9-23.35,40.23-46.78,43.98v-27.85c8.06-1.64,14.13-8.78,14.13-17.31,0-9.74-7.92-17.67-17.67-17.67s-17.67,7.92-17.67,17.67c0,8.53,6.08,15.67,14.13,17.31v28.52c-.82.03-1.64.1-2.47.1h-54.04c5.74-10.9,8.91-22.99,9.29-35.6.4.16.83.26,1.29.26h7.07c5.85,0,10.6-4.76,10.6-10.6v-39.23c8.06-1.64,14.13-8.78,14.13-17.31,0-9.74-7.92-17.67-17.67-17.67s-17.67,7.92-17.67,17.67c0,8.53,6.08,15.67,14.13,17.31v39.23c0,1.95-1.59,3.53-3.53,3.53h-7.07c-.48,0-.94.1-1.35.27-.93-18.7-8.15-36.49-20.72-50.44-15.48-17.4-37.7-27.38-60.97-27.38-.21,0-.42.03-.64.03-.36-.12-.73-.23-1.13-.23-.55,0-1.05.15-1.51.37-1.8.07-3.61.1-5.39.29-20.05,2.15-38.76,11.69-52.29,26.89-12.52,13.9-19.73,31.59-20.72,50.19h-4.9c-1.95,0-3.53-1.59-3.53-3.53v-39.23c8.06-1.64,14.13-8.78,14.13-17.31,0-9.74-7.92-17.67-17.67-17.67s-17.67,7.92-17.67,17.67c0,8.53,6.08,15.67,14.13,17.31v39.23c0,5.85,4.76,10.6,10.6,10.6h4.84c.41,12.51,3.57,24.51,9.28,35.34h-50.23c-.93,0-1.84-.08-2.75-.12v-28.5c8.06-1.64,14.13-8.78,14.13-17.31,0-9.74-7.92-17.67-17.67-17.67s-17.67,7.92-17.67,17.67c0,8.53,6.08,15.67,14.13,17.31v27.79c-23.93-4.02-43.4-22.38-47.11-45.86-2.44-15.38,1.32-30.57,10.6-42.75,9.22-12.12,23.16-20.03,38.25-21.73,1.5-.17,2.74-1.28,3.06-2.76,4.24-19.52,21.83-33.68,41.84-33.68,7.96,0,15.84,2.31,22.79,6.67.9.57,2.02.69,3.05.34,1.01-.36,1.81-1.15,2.16-2.17,9.61-27.58,35.65-46.11,64.8-46.11,24.29,0,46.32,12.54,58.95,33.55.91,1.52,2.84,2.13,4.44,1.41,6.08-2.66,12.5-4.01,19.08-4.01,24.91,0,45.86,19.54,47.71,44.5.12,1.57,1.25,2.86,2.79,3.2,29.84,6.4,48.69,35.16,42.92,65.49Zm-85.65-47.11c-5.85,0-10.6-4.76-10.6-10.6s4.76-10.6,10.6-10.6,10.6,4.76,10.6,10.6-4.76,10.6-10.6,10.6Zm-190.81,0c-5.85,0-10.6-4.76-10.6-10.6s4.76-10.6,10.6-10.6,10.6,4.76,10.6,10.6-4.76,10.6-10.6,10.6Z"/>
  </g>
</svg>