<?xml version="1.0" encoding="utf-8"?>
<!-- Generator: Adobe Illustrator 26.5.0, SVG Export Plug-In . SVG Version: 6.00 Build 0)  -->
<svg version="1.1" xmlns="http://www.w3.org/2000/svg" xmlns:xlink="http://www.w3.org/1999/xlink" x="0px" y="0px"
	 viewBox="0 0 2500 2500" style="enable-background:new 0 0 2500 2500;" xml:space="preserve">
<style type="text/css">
	.st0{fill:#EBE9EA;}
	.st1{fill:#FFFFFF;}
	.st2{fill:#845CFF;}
	.st3{fill:#CFF500;}
	.st4{fill:#A66CFF;}
	.st5{fill:#F8F9FB;}
</style>
<g id="Background">
	<g>
		<rect y="0" class="st0" width="2500" height="2500"/>
	</g>
</g>
<g id="Object">
	<g>
		<g>
			<g>
				<path class="st1" d="M372.2,639l-18.4,119.7l80,5.3l-1.4-84.8c0,0,45.1,16.6,66.1-11c28.3-37.3-4.4-130.4-11.2-148.7l-120.3-5.3
					L372.2,639z"/>
				<path d="M439.1,769.6l-91.4-6.1l19.2-124.8l-5.5-130l129.5,5.7l1.2,3.2c7,18.7,40.6,114.1,10.5,153.7
					c-9.7,12.7-25.3,18.9-45.3,17.9c-7.7-0.4-14.7-1.8-19.6-3L439.1,769.6z M359.9,753.9l68.6,4.6l-1.5-86.8l7.2,2.6
					c0.4,0.1,41.8,14.9,60.1-9.2c10.9-14.3,13.2-41.1,6.6-77.4c-4.9-27.1-13.5-52.3-17.4-63l-111.1-4.9l5.1,119.6L359.9,753.9z"/>
			</g>
			<g>
				<g>
					<path d="M541.7,508.4c-1-25.4-38.1-26.3-38.1-26.3c12.2-3.6,15.6-10.6,14.8-16c-4.3-30.7-65.1-6.7-65.1-6.7
						c11.8-12.8-6.8-15.2-6.8-15.2c-22.7-1-61.8,17.1-88.9,31.3c-9.4,0.9-100.8,16.2,6.8,184c0,0,39.9-9.5,39.2-53.1
						c0,0-20.3-31,8.2-38.2c5.4-1.4,11.2,0.7,14.7,5.1c4.7,6,7.4,11.3,8.9,14.8c1.2,2.7,3.9,4.5,6.8,4.4h0c3.9-0.2,7-3.5,6.8-7.4
						l-1-25.6C499.8,554.6,542.4,526.4,541.7,508.4z"/>
				</g>
			</g>
		</g>
		<g>
			<rect x="611.2" y="328.6" class="st1" width="1272.3" height="789.6"/>
			<path d="M1888.7,1123.5H606V323.4h1282.8V1123.5z M616.5,1113h1261.8V333.9H616.5V1113z"/>
		</g>
		<g>
			<rect x="1337.5" y="736.1" class="st1" width="488.2" height="77.5"/>
			<path d="M1831,818.9h-498.7v-88H1831V818.9z M1342.8,808.4h477.7v-67h-477.7V808.4z"/>
		</g>
		<g>
			<rect x="1337.5" y="880.8" class="st1" width="488.2" height="77.5"/>
			<path d="M1831,963.6h-498.7v-88H1831V963.6z M1342.8,953.1h477.7v-67h-477.7V953.1z"/>
		</g>
		<g>
			<rect x="1337.5" y="736.1" class="st2" width="157.5" height="77.5"/>
			<path d="M1500.2,818.9h-168v-88h168V818.9z M1342.8,808.4h147v-67h-147V808.4z"/>
		</g>
		<g>
			<rect x="1337.5" y="880.8" class="st3" width="272.2" height="77.5"/>
			<path d="M1615,963.6h-282.7v-88H1615V963.6z M1342.8,953.1h261.7v-67h-261.7V953.1z"/>
		</g>
		<g>
			<rect x="1401.9" y="503.7" class="st1" width="348.7" height="172.6"/>
			<path d="M1755.8,681.5h-359.1V498.4h359.1V681.5z M1407.2,671h338.2V508.9h-338.2V671z"/>
		</g>
		<g>
			<polygon class="st1" points="710.6,729 864.4,577.1 997.4,744.8 1089.2,621.4 1183,676.3 1267.4,590 			"/>
			<polygon points="997.5,753.4 863.9,584.9 714.3,732.7 707,725.2 864.8,569.3 997.2,736.2 1087.8,614.5 1182.1,669.7 
				1263.6,586.3 1271.1,593.6 1183.9,682.9 1090.6,628.3 			"/>
		</g>
		<g>
			<polygon points="1272.4,626.4 1261.9,625.7 1264.1,593.9 1230.7,602.6 1228,592.5 1275.6,580 			"/>
		</g>
		<g>
			<circle class="st3" cx="712" cy="728.4" r="19.5"/>
			<path d="M712,753.2c-13.6,0-24.7-11.1-24.7-24.7c0-13.6,11.1-24.7,24.7-24.7s24.7,11.1,24.7,24.7
				C736.7,742.1,725.6,753.2,712,753.2z M712,714.2c-7.9,0-14.2,6.4-14.2,14.2c0,7.9,6.4,14.2,14.2,14.2s14.2-6.4,14.2-14.2
				C726.2,720.6,719.8,714.2,712,714.2z"/>
		</g>
		<g>
			<circle class="st2" cx="864.4" cy="577.3" r="19.5"/>
			<path d="M864.4,602c-13.6,0-24.7-11.1-24.7-24.7s11.1-24.7,24.7-24.7s24.7,11.1,24.7,24.7S878.1,602,864.4,602z M864.4,563
				c-7.9,0-14.2,6.4-14.2,14.2s6.4,14.2,14.2,14.2s14.2-6.4,14.2-14.2S872.3,563,864.4,563z"/>
		</g>
		<g>
			<circle class="st3" cx="998.1" cy="744.5" r="19.5"/>
			<path d="M998.1,769.2c-13.6,0-24.7-11.1-24.7-24.7s11.1-24.7,24.7-24.7c13.6,0,24.7,11.1,24.7,24.7S1011.8,769.2,998.1,769.2z
				 M998.1,730.2c-7.9,0-14.2,6.4-14.2,14.2s6.4,14.2,14.2,14.2c7.9,0,14.2-6.4,14.2-14.2S1006,730.2,998.1,730.2z"/>
		</g>
		<g>
			<circle class="st2" cx="1089.1" cy="622.5" r="19.5"/>
			<path d="M1089.1,647.2c-13.6,0-24.7-11.1-24.7-24.7c0-13.6,11.1-24.7,24.7-24.7c13.6,0,24.7,11.1,24.7,24.7
				C1113.8,636.1,1102.7,647.2,1089.1,647.2z M1089.1,608.2c-7.9,0-14.2,6.4-14.2,14.2c0,7.9,6.4,14.2,14.2,14.2
				c7.9,0,14.2-6.4,14.2-14.2C1103.4,614.6,1097,608.2,1089.1,608.2z"/>
		</g>
		<g>
			<circle class="st3" cx="1182.8" cy="676.6" r="19.5"/>
			<path d="M1182.8,701.3c-13.6,0-24.7-11.1-24.7-24.7s11.1-24.7,24.7-24.7c13.6,0,24.7,11.1,24.7,24.7S1196.4,701.3,1182.8,701.3z
				 M1182.8,662.3c-7.9,0-14.2,6.4-14.2,14.2s6.4,14.2,14.2,14.2c7.9,0,14.2-6.4,14.2-14.2S1190.6,662.3,1182.8,662.3z"/>
		</g>
		<g>
			<path class="st1" d="M684,868.2h298.5H684z"/>
			<rect x="684" y="862.9" width="298.5" height="10.5"/>
		</g>
		<g>
			<path class="st1" d="M684,910.4h578.1H684z"/>
			<rect x="684" y="905.2" width="578.1" height="10.5"/>
		</g>
		<g>
			<path class="st1" d="M684,952.7h578.1H684z"/>
			<rect x="684" y="947.5" width="578.1" height="10.5"/>
		</g>
		<g>
			<rect x="611.2" y="328.6" class="st1" width="1272.3" height="83.8"/>
			<path d="M1888.7,417.7H606v-94.3h1282.8V417.7z M616.5,407.2h1261.8v-73.3H616.5V407.2z"/>
		</g>
		<g>
			<g>
				<rect x="921.9" y="1178.9" class="st1" width="461.9" height="254.7"/>
				<path d="M1389.1,1438.9H916.7v-265.2h472.4V1438.9z M927.2,1428.4h451.5v-244.2H927.2V1428.4z"/>
			</g>
			<g>
				<g>
					<path class="st3" d="M1054.4,1384.1c-12.4,0-24.7-3-35.6-8.8l6.2-11.7c9,4.8,19.2,7.3,29.4,7.3c33.3,0,61-26,63-59.2l13.2,0.8
						C1128.2,1352.6,1094.7,1384.1,1054.4,1384.1z"/>
				</g>
			</g>
			<g>
				<g>
					<path d="M1012.7,1367.7c-19.6-13.7-31.3-36.1-31.3-60c0-40.3,32.8-73,73-73c18.4,0,36,6.9,49.5,19.4
						c13.4,12.4,21.7,29.3,23.2,47.4l-6.6,0.6c-2.9-34.1-31.9-60.8-66.2-60.8c-36.6,0-66.4,29.8-66.4,66.4
						c0,21.7,10.7,42.1,28.5,54.5L1012.7,1367.7z"/>
				</g>
			</g>
			<g>
				<g>
					<circle class="st3" cx="1019.8" cy="1368.5" r="10.9"/>
				</g>
			</g>
			<g>
				<g>
					<circle class="st3" cx="1123.4" cy="1307.5" r="10.9"/>
				</g>
			</g>
			<g>
				<g>
					<path class="st2" d="M1182.7,1303.8l-13.2-0.8c2.5-40.2,35.9-71.6,76.2-71.6c0,0,0,0,0,0c12.4,0,24.7,3.1,35.6,8.8l-6.2,11.7
						c-9-4.8-19.2-7.3-29.4-7.3c0,0,0,0,0,0C1212.4,1244.6,1184.7,1270.6,1182.7,1303.8z"/>
				</g>
			</g>
			<g>
				<g>
					<path d="M1245.7,1380.8C1245.7,1380.8,1245.6,1380.8,1245.7,1380.8c-18.5,0-36.1-6.9-49.6-19.4c-13.4-12.4-21.7-29.3-23.2-47.5
						l6.6-0.6c2.9,34.1,31.9,60.8,66.1,60.8c0,0,0,0,0,0c36.6,0,66.4-29.8,66.4-66.4c0-21.7-10.6-42.1-28.5-54.6l3.8-5.4
						c19.6,13.7,31.3,36.1,31.3,60C1318.7,1348,1285.9,1380.8,1245.7,1380.8z"/>
				</g>
			</g>
			<g>
				<g>
					<circle class="st2" cx="1280.3" cy="1247" r="10.9"/>
				</g>
			</g>
			<g>
				<g>
					<circle class="st2" cx="1176.7" cy="1308" r="10.9"/>
				</g>
			</g>
			<g>
				<g>
					<rect x="1020" y="1286.2" width="41.6" height="5.3"/>
				</g>
			</g>
			<g>
				<g>
					<rect x="1020" y="1307" width="73.1" height="5.3"/>
				</g>
			</g>
			<g>
				<g>
					<rect x="1212.7" y="1286.2" width="41.6" height="5.3"/>
				</g>
			</g>
			<g>
				<g>
					<rect x="1212.7" y="1307" width="73.1" height="5.3"/>
				</g>
			</g>
		</g>
		<g>
			<path class="st1" d="M753.1,2183.8c0,0,53.5,78.3,105.2,89.1c64.1,13.4,83.9,45.9,85.5,53.9h-243l-25.2-140.3L753.1,2183.8z"/>
			<path d="M950.2,2332.1H696.4l-27-150.5l86.4-3.2l1.6,2.4c0.5,0.8,52.9,76.7,102,87c67.6,14.1,87.9,49.4,89.6,58L950.2,2332.1z
				 M705.2,2321.6h230.5c-2.6-4.1-7.1-9.6-14.5-15.7c-10.8-8.9-30.7-20.9-63.9-27.9c-48.6-10.2-97.1-75.3-106.8-88.9l-68.5,2.5
				L705.2,2321.6z"/>
		</g>
		<g>
			<path class="st1" d="M288,2183.8c0,0,22.5,78.3,74.2,89.1c64.1,13.4,83.9,45.9,85.5,53.9H192.9l17.8-140.3L288,2183.8z"/>
			<path d="M454.2,2332.1H186.9l19.1-150.6l86-3.1l1.1,3.9c0.2,0.8,22.3,75.4,70.3,85.5c67.6,14.1,87.9,49.4,89.6,58L454.2,2332.1z
				 M198.8,2321.6h240.8c-2.6-4.1-7.1-9.6-14.5-15.7c-10.8-8.9-30.7-20.9-63.9-27.9c-22.7-4.7-43.4-22.4-60-51.1
				c-9.2-15.9-14.7-30.9-17-37.7l-69,2.5L198.8,2321.6z"/>
		</g>
		<g>
			<g>
				<path class="st1" d="M235.2,1158.7c0,0-26.5,196.6-12.5,333.9l-44.9,712.9c0,0,44.3,16.5,87.4,19.2
					c38.2,2.4,92.5-19.2,92.5-19.2l54.5-589.7c0-0.1,0.2-0.1,0.2,0l199.8,606.6c0,0,54.3,9.2,106.7,6.7
					c50.1-2.4,81.9-25.7,81.9-25.7L473.9,1158.7H235.2z"/>
				<path d="M700.4,2234.8c-45.9,0-88.5-7.1-89-7.2l-3.1-0.5l-193.1-586.2l-52.5,568.3l-3,1.2c-2.3,0.9-55.9,22-94.8,19.6
					c-43.4-2.7-87.1-18.9-88.9-19.5l-3.6-1.4l45.1-716.4C203.6,1356.4,229.7,1160,230,1158l0.6-4.5h247.1l1.2,3.7l328.2,1048.2
					l-3,2.2c-1.4,1-33.7,24.3-84.8,26.8C713,2234.6,706.7,2234.8,700.4,2234.8z M616.3,2217.7c12.2,1.9,58.4,8.2,102.5,6.1
					c39.1-1.9,67-17.1,76-22.7L470,1164H239.8c-3.8,30.2-24.5,204.5-11.9,328.1l0,0.4l0,0.4l-44.6,709c11.4,3.9,47.5,15.4,82.3,17.6
					c31.6,2,75.5-13.4,87.3-17.7l54.6-590.7l4.3-0.6c2.5-0.3,4.9,1.2,5.7,3.6L616.3,2217.7z"/>
			</g>
		</g>
		<g>
			<path class="st1" d="M856.6,664.2l195.6-137.6c4.9-3.4,11.5,0.6,10.7,6.5c-1.8,12.2-9.8,32-38.1,56.3c0,0,26.1,23.8,12.2,53.2
				c0,0-22.8,17.9-52.4,22.6l-85.9,79.5L856.6,664.2z"/>
			<path d="M897.2,753.3l-47.5-90.7l199.4-140.2c4-2.8,9.1-3,13.3-0.4c4.2,2.6,6.3,7.1,5.6,12c-1.8,12.5-9.5,32.2-35.7,55.9
				c9.5,11.1,20.1,32.4,9.3,55.1l-0.5,1.1l-1,0.8c-1,0.8-23.5,18.2-53.2,23.4L897.2,753.3z M863.3,665.9l36.8,70.4l82-75.9l1.6-0.2
				c24.5-3.9,44.4-17.5,49-20.8c10.8-24.9-10.6-45-11.5-45.9l-4.3-4l4.5-3.8c27-23.2,34.7-41.7,36.3-53.1c0.1-0.8-0.3-1.3-0.7-1.5
				c-0.3-0.2-1-0.5-1.8,0.1L863.3,665.9z"/>
		</g>
		<g>
			<g>
				<path class="st4" d="M944.9,754c0,0,5.2-22-10.8-66.9c-10.5-29.4-43.6-59.3-43.6-59.3L675,787.9l-225.8-80
					c-7.8-2.8-16-4.2-24.3-4.2l-66.9,0c-10.6,0-90,49.6-90,49.6c-11.2,8.7-20.8,19.3-28.2,31.4c-23.7,38.4-78.2,128.8-106.6,192
					c-10,22.3-40.5,118.6,67.6,123.7c-10.1,80.9-15.4,115.1-18.5,180c0,0,49.8,33.9,179.5,47.6c124.6,13.1,182.6-31.6,182.6-31.6
					l-4.2-193.7L559,957.2l111.4,5.1c29.2,1.3,57.7-9,79.2-28.8L944.9,754z"/>
			</g>
		</g>
		<g>
			<path d="M408,1618.7c-0.8-1.3-85.7-135.3-157.9-299.7l9.6-4.2c71.8,163.7,156.3,297,157.1,298.3L408,1618.7z"/>
		</g>
		<g>
			<path class="st1" d="M200.8,1100.4L232,949L200.8,1100.4z"/>
			<rect x="139.1" y="1019.5" transform="matrix(0.2016 -0.9795 0.9795 0.2016 -830.899 1030.0262)" width="154.6" height="10.5"/>
		</g>
		<g>
			<path class="st1" d="M559,957.2l-80.5-8.7L559,957.2z"/>
			<rect x="513.5" y="912.3" transform="matrix(0.1069 -0.9943 0.9943 0.1069 -484.0724 1366.8004)" width="10.5" height="81"/>
		</g>
		<g>
			<g>
				<path class="st1" d="M1801.5,1340.5c0,0-113.9,46.6-119.1,191.4c0,0-9.6,112.3,79.1,148.3l34.2-5.4l-13.2-239.6l48.3-30.6
					L1801.5,1340.5z"/>
				<path d="M1760.9,1685.6l-1.4-0.5c-37.8-15.4-64.1-46.9-75.9-91.2c-8.6-32.3-6.7-59.9-6.5-62.3c2.8-76.4,35.8-125.6,63-153.4
					c29.5-30.2,58.1-42.1,59.3-42.6l4.7-1.9l33.4,72.9L1788,1438l13.3,241.3L1760.9,1685.6z M1799,1347.5
					c-9.1,4.5-30.3,16.5-51.6,38.4c-25.8,26.5-57.1,73.3-59.7,146.2l0,0.3c0,0.3-2.2,27.8,6.2,59.1c11,40.9,34,68.9,68.3,83.3
					l28.1-4.4l-13.1-237.9l47.1-29.8L1799,1347.5z"/>
			</g>
			<g>
				<path class="st1" d="M1921.5,1170.2l5.9,23.8c4.9,19.7,22.5,33.5,42.8,33.5h237.3c17.9,0,34-10.8,40.8-27.3l12.4-30H1921.5z"/>
				<path d="M2207.5,1232.8h-237.3c-22.8,0-42.5-15.4-47.9-37.5l-7.5-30.3h353.7l-15.4,37.3
					C2245.5,1220.8,2227.6,1232.8,2207.5,1232.8z M1928.2,1175.5l4.3,17.3c4.3,17.4,19.8,29.5,37.7,29.5h237.3
					c15.8,0,29.9-9.4,35.9-24.1l9.4-22.8H1928.2z"/>
			</g>
			<g>
				<ellipse class="st1" cx="1812.9" cy="1013.3" rx="82.7" ry="102.4"/>
				<path d="M1812.9,1120.9c-48.5,0-87.9-48.3-87.9-107.6s39.4-107.6,87.9-107.6c48.5,0,87.9,48.3,87.9,107.6
					S1861.3,1120.9,1812.9,1120.9z M1812.9,916.1c-42.7,0-77.4,43.6-77.4,97.1c0,53.6,34.7,97.1,77.4,97.1
					c42.7,0,77.4-43.6,77.4-97.1C1890.3,959.7,1855.6,916.1,1812.9,916.1z"/>
			</g>
			<g>
				<path class="st1" d="M1938.6,1184.9H2234c84.8,0,153.5-68.7,153.5-153.5v0c0-165.6-134.2-299.8-299.8-299.8h0
					c-167.8,0-302.9,137.7-299.8,305.4v0C1789.4,1119.1,1856.5,1184.9,1938.6,1184.9z"/>
				<path d="M2234,1190.1h-295.4c-41.1,0-79.9-15.9-109.3-44.7c-29.3-28.8-45.9-67.3-46.7-108.4c-1.5-82.6,29.4-160.5,87.3-219.4
					c57.8-58.9,135.2-91.4,217.7-91.4c168.2,0,305.1,136.8,305.1,305.1C2392.7,1118.9,2321.5,1190.1,2234,1190.1z M2087.7,736.8
					c-79.7,0-154.4,31.3-210.2,88.2c-55.8,56.9-85.8,132.1-84.3,211.9c0.7,38.3,16.2,74.2,43.6,101.1
					c27.4,26.9,63.6,41.6,101.9,41.6H2234c81.8,0,148.3-66.5,148.3-148.3C2382.2,868.9,2250.1,736.8,2087.7,736.8z"/>
			</g>
			<g>
				<ellipse class="st1" cx="2361" cy="1013.3" rx="82.7" ry="102.4"/>
				<path d="M2361,1120.9c-48.5,0-87.9-48.3-87.9-107.6s39.4-107.6,87.9-107.6c48.5,0,87.9,48.3,87.9,107.6
					S2409.5,1120.9,2361,1120.9z M2361,916.1c-42.7,0-77.4,43.6-77.4,97.1c0,53.6,34.7,97.1,77.4,97.1c42.7,0,77.4-43.6,77.4-97.1
					C2438.4,959.7,2403.7,916.1,2361,916.1z"/>
			</g>
			<g>
				<ellipse class="st3" cx="2380" cy="1012.8" rx="58.8" ry="72.8"/>
				<path d="M2380,1090.8c-35.3,0-64.1-35-64.1-78.1c0-43.1,28.7-78.1,64.1-78.1s64.1,35,64.1,78.1
					C2444.1,1055.8,2415.4,1090.8,2380,1090.8z M2380,945.2c-29.5,0-53.6,30.3-53.6,67.6c0,37.3,24,67.6,53.6,67.6
					s53.6-30.3,53.6-67.6C2433.6,975.5,2409.6,945.2,2380,945.2z"/>
			</g>
			<g>
				<path d="M1940.1,1039.5l63.8-18.8c16.4-4.8,33.9-4.8,50.4,0l63.8,18.8c57.1,16.8,114.3-26,114.3-85.5v0
					c0-39.2-25.7-73.8-63.2-85.2l0,0c-91.3-27.7-188.8-27.7-280.1,0l0,0c-37.5,11.4-63.2,46-63.2,85.2v0
					C1825.9,1013.5,1883.1,1056.3,1940.1,1039.5z"/>
			</g>
			<g>
				<ellipse class="st1" cx="1845" cy="1362.1" rx="57.3" ry="69.7"/>
				<path d="M1845,1437c-34.5,0-62.5-33.6-62.5-74.9c0-41.3,28-74.9,62.5-74.9c34.5,0,62.5,33.6,62.5,74.9
					C1907.5,1403.4,1879.5,1437,1845,1437z M1845,1297.7c-28.7,0-52,28.9-52,64.4c0,35.5,23.3,64.4,52,64.4c28.7,0,52-28.9,52-64.4
					C1897,1326.6,1873.7,1297.7,1845,1297.7z"/>
			</g>
			<g>
				<path class="st1" d="M2357.5,1300.1h-534c0,0-33,552.7,266.4,596.6h1.2C2390.5,1852.8,2357.5,1300.1,2357.5,1300.1z"/>
				<path d="M2091.5,1901.9l-2.3-0.1c-69.8-10.2-127.5-48.6-171.5-114c-34.9-51.9-61.3-120.8-78.3-204.9
					c-29-142.7-21.1-281.8-21-283.2l0.3-4.9h543.9l0.3,4.9c0.1,1.4,7.9,140.5-21,283.2c-17.1,84.1-43.4,153-78.3,204.9
					c-44,65.4-101.7,103.8-171.5,114L2091.5,1901.9z M2090.3,1891.4h0.4c66.6-9.9,121.7-46.6,163.9-109.3
					c34.1-50.7,60-118.3,76.8-201c25.7-126.3,22.2-249.8,21.1-275.7h-524c-1.1,25.9-4.6,149.5,21.1,275.7
					c16.8,82.7,42.6,150.3,76.8,201C1968.6,1844.8,2023.7,1881.6,2090.3,1891.4z"/>
			</g>
			<g>
				<ellipse class="st1" cx="2091.1" cy="1300.1" rx="267.6" ry="42.7"/>
				<path d="M2091.1,1348.1c-71.7,0-139.2-4.5-190-12.6c-24.9-4-44.6-8.6-58.4-13.9c-16.4-6.2-24.4-13.3-24.4-21.5
					c0-8.3,8-15.3,24.4-21.5c13.8-5.2,33.4-9.9,58.4-13.9c50.8-8.1,118.3-12.6,190-12.6c71.7,0,139.2,4.5,190,12.6
					c24.9,4,44.6,8.6,58.4,13.9c16.4,6.2,24.4,13.3,24.4,21.5c0,8.3-8,15.3-24.4,21.5c-13.8,5.2-33.4,9.9-58.4,13.9
					C2230.3,1343.6,2162.8,1348.1,2091.1,1348.1z M2091.1,1262.6c-71.2,0-138.1,4.4-188.4,12.5c-73.1,11.7-74,24.9-74,25
					s0.8,13.4,74,25c50.3,8,117.2,12.5,188.4,12.5c71.2,0,138.1-4.4,188.4-12.5c73.1-11.7,74-24.9,74-25s-0.8-13.4-74-25
					C2229.2,1267,2162.3,1262.6,2091.1,1262.6z"/>
			</g>
			<g>
				<ellipse class="st1" cx="2353.5" cy="1369.9" rx="57.3" ry="69.7"/>
				<path d="M2353.5,1444.8c-34.5,0-62.5-33.6-62.5-74.9s28-74.9,62.5-74.9s62.5,33.6,62.5,74.9S2387.9,1444.8,2353.5,1444.8z
					 M2353.5,1305.5c-28.7,0-52,28.9-52,64.4c0,35.5,23.3,64.4,52,64.4s52-28.9,52-64.4C2405.5,1334.4,2382.2,1305.5,2353.5,1305.5z
					"/>
			</g>
			<g>
				<ellipse class="st1" cx="2368.1" cy="1369.9" rx="37.9" ry="46.1"/>
				<path d="M2368.1,1421.2c-23.8,0-43.1-23-43.1-51.3c0-28.3,19.3-51.3,43.1-51.3c23.8,0,43.1,23,43.1,51.3
					C2411.2,1398.2,2391.8,1421.2,2368.1,1421.2z M2368.1,1329.1c-18,0-32.6,18.3-32.6,40.8c0,22.5,14.6,40.8,32.6,40.8
					s32.6-18.3,32.6-40.8C2400.7,1347.4,2386,1329.1,2368.1,1329.1z"/>
			</g>
			<g>
				<ellipse class="st3" cx="2056.1" cy="1457.8" rx="72.4" ry="54.5"/>
				<path d="M2056.1,1517.5c-42.8,0-77.6-26.8-77.6-59.7s34.8-59.7,77.6-59.7c42.8,0,77.6,26.8,77.6,59.7
					S2098.9,1517.5,2056.1,1517.5z M2056.1,1408.5c-37,0-67.1,22.1-67.1,49.2c0,27.2,30.1,49.2,67.1,49.2c37,0,67.1-22.1,67.1-49.2
					C2123.3,1430.6,2093.2,1408.5,2056.1,1408.5z"/>
			</g>
			<g>
				<path class="st1" d="M2029.1,988.3c-28.7,0-51.2-13.3-51.2-30.2h10.5c0,11.6,21.5,19.7,40.7,19.7c19.3,0,40.7-8.1,40.7-19.7
					h10.5C2080.4,975.1,2057.9,988.3,2029.1,988.3z"/>
			</g>
			<g>
				<ellipse cx="2078.8" cy="1301.1" rx="157.3" ry="25.1"/>
			</g>
			<g>
				<path d="M2066,1591.1c-37.5,0-73.8-13.4-102.3-37.7s-47.4-58.1-53.2-95.1l-20.2-128l10.4-1.6l20.2,128
					c5.4,34.5,23.1,66.1,49.6,88.8c26.6,22.7,60.5,35.2,95.4,35.2c71.9,0,132.8-51.5,144.8-122.3l20.9-123.2l10.3,1.8l-20.9,123.2
					C2208.2,1536,2143,1591.1,2066,1591.1z"/>
			</g>
			<g>
				<path d="M2073.8,1673c-33.2,0-65.7-3.7-97.1-11c-84-19.6-130.2-58-132.1-59.6l6.8-8c0,0,0,0,0,0l0,0c0.2,0.2,11.8,9.8,33.2,21.6
					c19.8,10.9,52.4,26,95.1,35.9c48,11.1,98.7,13.5,150.7,7c65.1-8.1,132.5-30,200.3-65.2l4.8,9.3
					c-69.1,35.9-137.8,58.2-204.3,66.4C2111.8,1671.8,2092.7,1673,2073.8,1673z"/>
			</g>
			<g>
				<ellipse class="st1" cx="1925.8" cy="935.6" rx="23.4" ry="30.1"/>
			</g>
			<g>
				<ellipse class="st1" cx="2135.3" cy="935.6" rx="23.4" ry="30.1"/>
			</g>
			<g>
				<path class="st1" d="M2093.1,1664l1.2-1.1c8.7-7.8,8.9-21.3,0.5-29.5c-18.5-18.2-54.5-41.8-101.8-17.2
					c-9.8,5.1-13.8,17.1-8.9,27l0,0c4.3,8.6,14.2,13.1,23.5,10.4c15.2-4.5,39-7.1,58.5,10.4
					C2073.9,1670.9,2085.5,1670.9,2093.1,1664z"/>
				<path d="M2079.7,1674.4c-6.1,0-12.1-2.2-17-6.5c-17.3-15.6-38.7-13.6-53.5-9.3c-11.7,3.4-24.1-2.1-29.7-13.1
					c-6.2-12.3-1.2-27.6,11.1-34c50.9-26.5,89.4,0,107.9,18.1c5,4.9,7.8,11.8,7.7,18.8c-0.2,7.1-3.1,13.5-8.4,18.3l-1.2,1.1
					C2091.8,1672.3,2085.7,1674.4,2079.7,1674.4z M2029.7,1645c13.1,0,27.4,3.7,40,15.1c5.7,5.1,14.2,5.1,19.9,0v0l1.2-1.1
					c3.1-2.8,4.8-6.6,4.9-10.7c0.1-4.2-1.5-8.1-4.5-11.1c-20.1-19.7-52.9-38.5-95.7-16.3c-7.3,3.8-10.2,12.7-6.6,20
					c3.2,6.5,10.5,9.7,17.3,7.7C2013.1,1646.6,2021.1,1645,2029.7,1645z"/>
			</g>
			<g>
				<path class="st1" d="M2423.3,1393.8c0,0-15.5-52.3-62.6-47.2c0,0-38.7,3.8-19.8,76.3c0,0,36.8,107.8-1.4,177
					c0,0-20.9,89.1-240.9,44.8c0,0-60.2,11.9-23.2,65.9c0,0,123.8,78.5,271.4,0C2346.9,1710.6,2496.9,1642.8,2423.3,1393.8z"/>
				<path d="M2210.6,1750.7c-21,0-39.9-2.3-55.7-5.5c-49.8-9.9-80.8-29.3-82.1-30.2l-0.9-0.6l-0.6-0.9c-12.4-18.1-15.9-34-10.5-47.3
					c8.5-20.9,35.8-26.5,37-26.7l1-0.2l1,0.2c61.3,12.3,145.5,21.5,198.4-4.8c30.9-15.3,36.2-35.3,36.4-36.1l0.2-0.7l0.3-0.6
					c36.6-66.3,1.4-171.7,1-172.7l-0.1-0.4c-8.1-31.2-7.1-54.4,3.2-69.1c8.6-12.4,20.7-13.7,21.2-13.7c50.8-5.6,67.9,50.3,68.1,50.9
					l0,0c17,57.4,23.5,110.1,19.3,156.5c-3.4,37.4-13.6,70.8-30.4,99.4c-28.1,47.8-64.8,65.6-68,67.1
					C2298.5,1742.3,2250.5,1750.7,2210.6,1750.7z M2079.2,1706.7c5.4,3.2,34.6,19.7,78.1,28.3c44.1,8.7,112.4,10.7,187.1-29l0.3-0.1
					c0.4-0.2,36.7-17.1,63.8-63.5c15.9-27.2,25.6-59.2,28.7-95c4-45-2.4-96.1-19-152.1c-0.1-0.3-3.9-12.6-12.9-24
					c-11.7-14.8-26.5-21.4-44-19.4c-0.3,0-8,1.1-13.8,9.6c-5.6,8.3-10.5,25.4-1.5,60c0.9,2.7,9.5,28.8,13.8,63.4
					c7.4,59.7-4.1,96.5-15.3,117.1c-1.3,4.4-9,25.6-40.4,41.7c-44.3,22.7-113.4,24.9-205.3,6.5c-4.4,1.1-22.8,6.4-28.4,20.2
					C2066.5,1680,2069.5,1692.2,2079.2,1706.7z"/>
			</g>
			<g>
				<path class="st1" d="M1859.9,1632.1l0.9-1.4c6.1-10,2.4-22.9-7.9-28.4c-22.9-12.1-64.1-24.5-102.5,12.6
					c-7.9,7.7-8.4,20.3-0.8,28.4l0,0c6.6,7,17.4,8.5,25.5,3.3c13.3-8.6,35.4-18,59-6.7C1843.4,1644.2,1854.5,1640.9,1859.9,1632.1z"
					/>
				<path d="M1764.4,1654.9c-6.8,0-13.6-2.8-18.6-8.1c-9.4-10-9-26.1,1-35.7c41.2-39.9,85.7-25.5,108.6-13.4
					c6.2,3.3,10.9,9.1,12.7,15.9c1.9,6.8,0.9,13.9-2.8,19.9l-0.9,1.4c-6.8,11.1-20.8,15.2-32.5,9.7c-21-10-40.9-2-53.9,6.4
					C1773.8,1653.6,1769.1,1654.9,1764.4,1654.9z M1807.5,1595.3c-17.1,0-35.6,6.1-53.5,23.4c-5.9,5.7-6.2,15.1-0.6,21
					c5,5.3,12.9,6.3,18.8,2.4c21.5-14,44.3-16.5,64.1-7.1c6.9,3.3,15.1,0.8,19-5.7l0.9-1.4c2.2-3.5,2.7-7.7,1.7-11.6
					c-1.1-4.1-3.8-7.4-7.5-9.4C1838.4,1600.6,1823.6,1595.3,1807.5,1595.3z"/>
			</g>
			<g>
				<path class="st1" d="M2018.1,1413.8h-260.7c-8.5,0-15.1,7.5-14.1,15.9l38,311.1c1.2,9.6,9.3,16.8,19,16.8h249.1
					c11.5,0,20.4-10,19-21.4l-36.3-309.9C2031.3,1419.2,2025.3,1413.8,2018.1,1413.8z"/>
				<path d="M2049.5,1762.9h-249.1c-12.3,0-22.7-9.2-24.2-21.4l-38-311.1c-0.7-5.5,1.1-11.1,4.7-15.2s9-6.6,14.6-6.6h260.7
					c9.9,0,18.2,7.4,19.3,17.2l36.3,309.9c0.8,6.9-1.4,13.9-6,19.1C2063.1,1759.9,2056.5,1762.9,2049.5,1762.9z M1757.4,1419.1
					c-2.6,0-5,1.1-6.7,3c-1.7,1.9-2.5,4.4-2.2,7l38,311.1c0.9,7,6.8,12.2,13.8,12.2h249.1c4,0,7.8-1.7,10.4-4.7s3.9-6.9,3.4-10.9
					L2027,1427c-0.5-4.5-4.3-7.9-8.9-7.9H1757.4z"/>
			</g>
			<g>
				<path class="st1" d="M1940.2,1415.4l-5,22.3c-0.6,2.8-3.1,4.8-6,4.8h-85.4c-2.4,0-4.6-1.4-5.6-3.6l-10.1-22.8
					c-1.4-3.1,0.9-6.7,4.3-6.7h102.9C1938.6,1409.4,1940.9,1412.3,1940.2,1415.4z"/>
				<path d="M1929.2,1447.8h-85.4c-4.5,0-8.6-2.7-10.4-6.8l-10.1-22.8c-1.4-3.1-1.1-6.7,0.8-9.5c1.9-2.8,5-4.5,8.4-4.5h102.9
					c3.1,0,6,1.4,7.9,3.8c1.9,2.4,2.7,5.5,2,8.6l-5,22.3C1939.2,1444.1,1934.6,1447.8,1929.2,1447.8z M1833.3,1414.7l9.8,22.1
					c0.1,0.3,0.5,0.5,0.8,0.5h85.4c0.4,0,0.8-0.3,0.9-0.7l4.9-21.9H1833.3z"/>
			</g>
			<g>
				<path class="st1" d="M1773.8,1413.8c0,0-28.4-15.2-53.9-2.5L1773.8,1413.8z"/>
				<path d="M1771.4,1418.4c-0.3-0.1-26.4-13.7-49.1-2.4l-4.7-9.4c27.6-13.8,57.5,1.8,58.7,2.5L1771.4,1418.4l2.5-4.6L1771.4,1418.4
					z"/>
			</g>
			<g>
				<path class="st1" d="M1750.9,1492.1c0,0-54.6-17.3-67.8,27.9L1750.9,1492.1z"/>
				<path d="M1688.2,1521.5l-10.1-2.9c3.9-13.2,11.3-22.9,22.2-28.7c22.4-11.9,51-3.1,52.2-2.7l-3.2,10l1.6-5l-1.6,5
					c-0.3-0.1-25.7-7.9-44.1,2C1696.9,1503.5,1691.2,1511.1,1688.2,1521.5z"/>
			</g>
			<g>
				<path class="st1" d="M1758.9,1557.1c0,0-60.3,2.6-64.3,53.3L1758.9,1557.1z"/>
				<path d="M1699.8,1610.8l-10.5-0.8c4.3-54.7,68.6-58.1,69.3-58.2l0.5,10.5l-0.2-5.2l0.2,5.2c-0.1,0-14.5,0.7-29,7.3
					C1711.5,1578.1,1701.3,1591.9,1699.8,1610.8z"/>
			</g>
			<g>
				<path class="st1" d="M2441.3,1480.4c0,0-35.7-49.2-87.1,1.9L2441.3,1480.4z"/>
				<path d="M2357.9,1486.1l-7.4-7.4c17.9-17.8,36.1-26,54.1-24.6c25.2,2,40.3,22.4,40.9,23.3l-8.5,6.2c-0.1-0.2-13-17.4-33.4-19
					C2388.9,1463.4,2373.5,1470.6,2357.9,1486.1z"/>
			</g>
			<g>
				<path class="st1" d="M2437.6,1580.8c0,0-13.6-53.6-83-26.3L2437.6,1580.8z"/>
				<path d="M2432.5,1582.1c0-0.2-4.6-17.1-21-25.4c-14-7.1-32.5-6.2-55,2.7l-3.8-9.8c25.6-10.1,47-10.8,63.8-2.2
					c20.6,10.6,26,31.2,26.2,32.1L2432.5,1582.1z"/>
			</g>
			<g>
				<path class="st1" d="M2376.9,1689.6c0,0,5.8-71.3-47-72.5L2376.9,1689.6z"/>
				<path d="M2382.2,1690.1l-10.5-0.8c0-0.4,2.7-36.1-14.5-55.1c-6.9-7.6-15.9-11.5-27.4-11.7l0.2-10.5c14.4,0.3,26.2,5.4,35,15.2
					C2385.2,1649.5,2382.3,1688.4,2382.2,1690.1z"/>
			</g>
			<g>
				<path class="st1" d="M2277.1,1737.5c0,0,4-71.5-14.9-85.4L2277.1,1737.5z"/>
				<path d="M2282.3,1737.8l-10.5-0.6c1.5-26.6-0.7-72-12.7-80.8l6.2-8.5C2285.9,1663,2282.7,1730.2,2282.3,1737.8z"/>
			</g>
			<g>
				<path class="st1" d="M2186.1,1744.4c0,0-20.4-54.5-2.9-88.1L2186.1,1744.4z"/>
				<path d="M2181.2,1746.3c-0.9-2.3-21-57.1-2.6-92.4l9.3,4.8c-16.2,31.1,3,83.3,3.2,83.9L2181.2,1746.3z"/>
			</g>
			<g>
				<path class="st1" d="M2092.7,1698.6l0.5,1.6c3.2,11.2-3.8,22.7-15.2,25.2c-25.3,5.6-68.4,6.5-95.4-39.6
					c-5.6-9.5-2.6-21.8,6.8-27.5l0,0c8.3-5,19-3.6,25.4,3.7c10.5,11.9,29.3,26.8,55.1,22.3C2080,1682.5,2089.8,1688.7,2092.7,1698.6
					z"/>
				<path d="M2054.3,1733.3c-24.8,0-55.2-8.8-76.3-44.8c-7-12-3.1-27.5,8.6-34.7c10.5-6.4,24-4.4,32.1,4.7
					c10.2,11.6,27.3,24.6,50.2,20.6c12.8-2.2,25.1,5.5,28.7,18l0,0l0.4,1.6c1.9,6.8,1,13.9-2.6,19.9c-3.6,6-9.6,10.4-16.5,11.9
					C2072.1,1732,2063.6,1733.3,2054.3,1733.3z M2000,1660.6c-2.7,0-5.4,0.7-7.8,2.2c-6.9,4.2-9.2,13.4-5,20.4
					c24.4,41.6,62.2,43.1,89.7,37.1c4.1-0.9,7.6-3.4,9.8-7c2.1-3.5,2.7-7.7,1.5-11.7l-0.5-1.6c-2.1-7.3-9.3-11.9-16.8-10.6
					c-21.6,3.8-42.9-4.8-59.9-24C2008,1662.2,2004,1660.6,2000,1660.6z"/>
			</g>
			<g>
				<path class="st1" d="M1851.3,1670.5l0.8,1.4c5.8,10.2,1.7,23-8.8,28.1c-23.3,11.4-64.9,22.4-102-15.9c-7.7-8-7.7-20.6,0.1-28.4
					l0,0c6.8-6.8,17.6-7.9,25.6-2.4c13,9.1,34.8,19.1,58.8,8.7C1835.3,1657.9,1846.3,1661.5,1851.3,1670.5z"/>
				<path d="M1800.1,1716c-19.7,0-41.8-6.8-62.5-28.2c-9.7-10-9.6-26,0.2-35.8c8.7-8.7,22.3-10,32.3-3c12.7,8.9,32.3,17.5,53.7,8.2
					c11.9-5.2,25.7-0.6,32.2,10.7l0.8,1.4c3.5,6.1,4.3,13.2,2.2,20c-2.1,6.7-6.9,12.3-13.2,15.4
					C1834.5,1710.2,1818.3,1716,1800.1,1716z M1755.8,1655c-3.8,0-7.7,1.5-10.6,4.4c-5.7,5.7-5.8,15.1-0.1,21
					c33.5,34.6,70.7,27.2,95.9,14.8c3.8-1.9,6.6-5.1,7.8-9.1c1.2-3.9,0.8-8.1-1.3-11.7l-0.8-1.4c-3.8-6.6-11.9-9.3-18.8-6.3
					c-20.1,8.8-42.8,5.5-63.9-9.2C1761.6,1655.9,1758.7,1655,1755.8,1655z"/>
			</g>
		</g>
		<g>
			<rect x="51.1" y="2321.5" width="1295.3" height="10.5"/>
		</g>
		<g>
			<g>
				<rect x="1016" y="173.2" class="st1" width="483.5" height="268.4"/>
				<path d="M1504.8,446.8h-494V167.9h494V446.8z M1021.2,436.3h473V178.4h-473V436.3z"/>
			</g>
			<g>
				<g>
					<rect x="1105.7" y="219.3" class="st2" width="47.1" height="180.8"/>
					<path d="M1158.1,405.4h-57.6V214.1h57.6V405.4z M1110.9,394.9h36.6V224.6h-36.6V394.9z"/>
				</g>
			</g>
			<g>
				<g>
					<rect x="1276.8" y="219.3" class="st2" width="47.1" height="180.8"/>
					<path d="M1329.1,405.4h-57.6V214.1h57.6V405.4z M1282,394.9h36.6V224.6H1282V394.9z"/>
				</g>
			</g>
			<g>
				<g>
					<rect x="1191.7" y="284.4" class="st3" width="47.1" height="115.8"/>
					<path d="M1244.1,405.4h-57.6V279.1h57.6V405.4z M1197,394.9h36.6V289.6H1197V394.9z"/>
				</g>
			</g>
			<g>
				<g>
					<rect x="1362.8" y="342.8" class="st3" width="47.1" height="57.9"/>
					<path d="M1415.2,405.9h-57.6v-68.4h57.6V405.9z M1368.1,395.4h36.6V348h-36.6V395.4z"/>
				</g>
			</g>
			<g>
				<path class="st1" d="M1079.2,400.2h354.9H1079.2z"/>
				<rect x="1079.2" y="394.9" width="354.9" height="10.5"/>
			</g>
		</g>
		<g>
			<g>
				<path class="st5" d="M2123.6,562H2340c7.9,0,14.6-5.5,16.2-13.2l31.1-152.2c3.3-16-9.1-30.9-25.4-30.7l-266.6,4
					c-8.5,0.1-15.8,6.2-17.5,14.5l-43.4,214.4c-1.8,9,8.1,15.8,15.8,10.8L2123.6,562z"/>
				<path d="M2044.5,616.6c-3,0-6.1-0.9-8.8-2.8c-5.3-3.6-7.8-9.7-6.5-16l43.4-214.4c2.2-10.7,11.6-18.5,22.5-18.7l266.6-4
					c9.4-0.1,18.2,3.9,24.2,11.1c6,7.2,8.3,16.6,6.5,25.8l-31.1,152.2c-2.1,10.1-11,17.4-21.3,17.4h-214.9l-72,46.8
					C2050.4,615.7,2047.5,616.6,2044.5,616.6z M2362.3,371.2c-0.1,0-0.2,0-0.3,0l-266.6,4c-6,0.1-11.2,4.4-12.4,10.3l-43.4,214.4
					c-0.6,3.1,1.5,4.8,2.1,5.3c0.7,0.4,3,1.8,5.7,0.1l74.7-48.5h218c5.3,0,10-3.8,11.1-9l31.1-152.2c1.2-6.1-0.3-12.3-4.3-17
					C2374,373.8,2368.3,371.2,2362.3,371.2z"/>
			</g>
			<g>
				
					<ellipse transform="matrix(0.3111 -0.9504 0.9504 0.3111 1133.5171 2488.0837)" class="st5" cx="2283" cy="462.1" rx="18.5" ry="16.2"/>
				<path d="M2281.8,485.7c-2.1,0-4.1-0.3-6.2-1c-11.3-3.7-17.1-16.8-13-29.3c4.1-12.4,16.5-19.6,27.8-15.9
					c11.3,3.7,17.1,16.8,13,29.3c-1.9,5.9-5.8,10.8-10.9,13.8C2289.1,484.7,2285.5,485.7,2281.8,485.7z M2284.3,449.1
					c-4.9,0-9.8,3.8-11.7,9.6c-2.3,6.9,0.6,14.1,6.3,16c2.7,0.9,5.6,0.5,8.3-1.1c2.9-1.7,5.1-4.6,6.3-8.1c2.3-6.9-0.6-14.1-6.3-16
					C2286.2,449.2,2285.2,449.1,2284.3,449.1z"/>
			</g>
			<g>
				
					<ellipse transform="matrix(0.3111 -0.9504 0.9504 0.3111 1088.4569 2425.9189)" class="st5" cx="2217.6" cy="462.1" rx="18.5" ry="16.2"/>
				<path d="M2216.3,485.7c-2,0-4.1-0.3-6.1-1c-11.3-3.7-17.1-16.8-13-29.3c4.1-12.4,16.5-19.6,27.8-15.9
					c11.3,3.7,17.1,16.8,13,29.3C2234.7,479.1,2225.7,485.7,2216.3,485.7z M2218.9,449.1c-4.9,0-9.8,3.8-11.7,9.6
					c-2.3,6.9,0.6,14.1,6.3,16c5.8,1.9,12.3-2.2,14.6-9.2c2.3-6.9-0.6-14.1-6.3-16C2220.8,449.2,2219.8,449.1,2218.9,449.1z"/>
			</g>
			<g>
				
					<ellipse transform="matrix(0.3111 -0.9504 0.9504 0.3111 1042.9156 2363.0908)" class="st5" cx="2151.5" cy="462.1" rx="18.5" ry="16.2"/>
				<path d="M2150.2,485.7c-2,0-4.1-0.3-6.1-1c-11.3-3.7-17.1-16.8-13-29.3c1.9-5.9,5.8-10.8,10.9-13.8c5.3-3.1,11.3-3.9,16.9-2.1
					c11.3,3.7,17.1,16.8,13,29.3C2168.6,479.1,2159.6,485.7,2150.2,485.7z M2152.8,449.1c-1.8,0-3.7,0.5-5.4,1.6
					c-2.9,1.7-5.1,4.6-6.3,8.1c-2.3,6.9,0.6,14.1,6.3,16c5.8,1.9,12.3-2.2,14.6-9.2c2.3-6.9-0.6-14.1-6.3-16
					C2154.7,449.2,2153.7,449.1,2152.8,449.1z"/>
			</g>
		</g>
		<g>
			<rect x="1001.1" y="591" transform="matrix(0.851 -0.5251 0.5251 0.851 -162.0373 621.2562)" width="25.6" height="10.5"/>
		</g>
		<g>
			<rect x="1007.2" y="609" transform="matrix(0.8824 -0.4706 0.4706 0.8824 -168.7691 553.317)" width="30.2" height="10.5"/>
		</g>
		<g>
			<rect x="1019.9" y="623.7" transform="matrix(0.8897 -0.4566 0.4566 0.8897 -173.4319 540.1292)" width="22.4" height="10.5"/>
		</g>
	</g>
</g>
</svg>
